<svg xmlns="http://www.w3.org/2000/svg" xmlns:xlink="http://www.w3.org/1999/xlink" version="1.1" x="0px" y="0px" viewBox="0 0 100 125" style="enable-background:new 0 0 100 100;" xml:space="preserve"><style type="text/css">
	.st0{fill:#010202;}
</style><path class="st0" d="M79.2,51.2l-8-9.7c-0.3-0.5-0.6-0.8-0.9-1.1c-0.3-0.3-0.7-0.4-1.2-0.4C69,40,69,40,69,40l-0.4,0  c-0.2,0-0.5-0.1-0.7-0.2c-0.1-0.1-0.3-0.3-0.4-0.6c-0.1-0.2,0-0.5,0.2-0.6c2.2-0.6,3.7-2.5,3.8-4.9c0.1-2.8-2.3-5.3-5.1-5.3  c-2.9,0-5.3,2.3-5.3,5.2c0,2.4,1.6,4.4,3.8,5c0.3,0.1,0.4,0.4,0.2,0.6c-0.1,0.2-0.3,0.4-0.4,0.6c-0.2,0.2-0.4,0.3-0.7,0.2l-0.5,0  c0,0-0.1,0-0.1,0c-0.5,0-0.9,0.2-1.2,0.4c-0.3,0.3-0.6,0.6-0.9,1.1l-7.9,9.7C53,52,53.2,53.1,54,53.7c0.3,0.2,0.7,0.3,1,0.3  c0.6,0,1.1-0.3,1.5-0.8l5.5-7.8c0,0,0,0,0,0.1c0,0.6,0.8,1.1,1.3,1.4C63,51.4,61.5,59.9,57,70.3c-0.4,0.9,0,2,0.9,2.4  c0.2,0.1,0.5,0.1,0.7,0.1c0.7,0,1.4-0.4,1.7-1.1c1-2.4,2-5.4,2.8-8c0-0.1,0.1-0.4,0.1-0.4l6.1,0c0,0,0.1,0.2,0.1,0.3  c0.8,2.6,1.8,5.6,2.8,8c0.3,0.7,1,1.1,1.7,1.1c0.2,0,0.5,0,0.7-0.1c0.9-0.4,1.3-1.5,0.9-2.4c-4.5-10.4-6-18.9-6.2-23.4  c0.4-0.3,1.1-0.8,1.1-1.4c0-0.1,0-0.2,0-0.2l5.6,7.9c0.5,0.8,1.6,1.1,2.4,0.6C79.5,53.3,79.8,52.1,79.2,51.2z"/><path class="st0" d="M47.3,51.2l-6-9.6c-0.4-0.6-0.8-1-1.2-1.2c-0.5-0.3-1-0.5-1.7-0.5c-0.1,0-0.1,0-0.2,0L37,40  c-0.2,0-0.4,0-0.6-0.2c-0.3-0.2-0.5-0.5-0.8-0.9c-0.1-0.1,0-0.3,0.1-0.3c2.5-0.7,4.2-3.1,3.7-5.9c-0.4-2.1-2-3.8-4.1-4.2  c-3.3-0.6-6.2,1.9-6.2,5.1c0,2.4,1.6,4.4,3.8,5c0.1,0,0.2,0.2,0.1,0.3c-0.2,0.4-0.5,0.7-0.8,0.9c-0.2,0.1-0.4,0.2-0.6,0.2l-1.2-0.1  c-0.1,0-0.1,0-0.2,0c-0.7,0-1.2,0.2-1.7,0.5c-0.5,0.3-0.9,0.7-1.2,1.2l-5.9,9.6c-0.6,0.8-0.4,1.9,0.4,2.5c0.3,0.2,0.7,0.3,1,0.3  c0.6,0,1.1-0.3,1.5-0.8l4.2-7.3c0.4-0.6,1-1,1.8-1l0,0c0,4.1-0.4,14.1-6.1,25.4c-0.4,0.9,0,1.9,1,2.2c0.3,0.1,0.5,0.1,0.8,0.1  c0.8,0,1.5-0.4,1.8-1c2.6-5.3,5.1-15.4,5.1-15.4c0.1-0.4,0.5-0.7,0.9-0.7h0.9c0.4,0,0.8,0.3,0.9,0.7c0,0,2.5,10.1,5.1,15.4  c0.3,0.6,1,1,1.8,1c0.3,0,0.5,0,0.8-0.1c1-0.4,1.4-1.4,1-2.2C38.8,59,38.4,49,38.4,44.9l0,0c0.7,0,1.3,0.4,1.7,1l4.2,7.4  c0.6,0.8,1.7,1,2.5,0.4C47.7,53.1,47.9,52,47.3,51.2z"/><path class="st0" d="M58.2,65.4c-1.5-3.9-2.4-7.5-3-10.7c-0.1,0-0.1,0-0.2,0c-0.5,0-1-0.2-1.5-0.5c-0.6-0.4-0.9-1-1-1.6  c-0.1-0.7,0-1.3,0.4-1.9l0,0l0,0l1.5-1.8c-0.1-1.7-0.2-3-0.2-4l0,0c0.7,0,1.3,0.4,1.7,1l0.4,0.7l2.2-2.7l-1.4-2.3  c-0.4-0.6-0.8-1-1.2-1.2c-0.5-0.3-1-0.5-1.7-0.5c-0.1,0-0.1,0-0.2,0L52.9,40c-0.2,0-0.4,0-0.6-0.2c-0.3-0.2-0.5-0.5-0.8-0.9  c-0.1-0.1,0-0.3,0.1-0.3c2.5-0.7,4.2-3.1,3.7-5.9c-0.4-2.1-2-3.8-4.1-4.2c-3.3-0.6-6.2,1.9-6.2,5.1c0,2.4,1.6,4.4,3.8,5  c0.1,0,0.2,0.2,0.1,0.3c-0.2,0.4-0.5,0.7-0.8,0.9C48.2,39.9,48,40,47.8,40l-1.2-0.1c-0.1,0-0.1,0-0.2,0c-0.7,0-1.2,0.2-1.7,0.5  c-0.5,0.3-0.9,0.7-1.2,1.2l-0.6,1l2,3.1c0.4-0.5,1-0.8,1.6-0.8l0,0c0,0.9,0,2-0.1,3.3l1.6,2.6c0.8,1.1,0.5,2.7-0.6,3.5  c-0.4,0.3-0.9,0.5-1.5,0.5c-0.1,0-0.2,0-0.3,0c-0.5,2.9-1.4,6.3-2.7,9.9c0.6,1.6,1.3,3.3,2.1,4.8C47.1,64,49,56.3,49,56.3  c0.1-0.4,0.5-0.7,0.9-0.7h0.9c0.4,0,0.8,0.3,0.9,0.7c0,0,2.1,8.7,4.5,14.1c0-0.2,0.1-0.3,0.2-0.5C57,68.4,57.6,66.9,58.2,65.4z"/><path class="st0" d="M61.1,48l-2.2,3.1l1.3,2.2c0.3,0.4,0.8,0.7,1.3,0.7c0.3-1.7,0.6-3.1,0.7-4.3L61.1,48z"/><path class="st0" d="M39.3,48.4c0.1,1.8,0.3,3.6,0.6,5.4c0.2-0.1,0.4-0.3,0.6-0.5l1.5-2.7l-2-3.4L39.3,48.4z"/><path class="st0" d="M29.4,48.3c-0.1,1.8-0.3,3.6-0.6,5.4c-0.2-0.1-0.4-0.3-0.6-0.5l-1.5-2.7l2-3.4L29.4,48.3z"/><path class="st0" d="M22.8,54.7c-0.5,0-1-0.2-1.5-0.5c-1.1-0.8-1.4-2.4-0.6-3.5l1.6-2.6c-0.1-1.3-0.1-2.5-0.1-3.3l0,0  c0.7,0,1.2,0.3,1.6,0.8l2-3.1l-0.6-1c-0.4-0.6-0.8-1-1.2-1.2c-0.5-0.3-1-0.5-1.7-0.5c0,0-0.1,0-0.2,0l-1.2,0.1c-0.2,0-0.4,0-0.6-0.2  c-0.3-0.2-0.5-0.5-0.8-0.9c-0.1-0.1,0-0.3,0.1-0.3c2.2-0.6,3.8-2.6,3.8-5c0-3-2.5-5.4-5.5-5.2v0c-2.9,0-5.2,2.3-5.2,5.2  c0,2.4,1.6,4.4,3.8,5c0.1,0,0.2,0.2,0.1,0.3c-0.2,0.4-0.5,0.7-0.8,0.9c-0.2,0.1-0.4,0.2-0.6,0.2l-1.2-0.1c-0.1,0-0.1,0-0.2,0  c-0.7,0-1.2,0.2-1.7,0.5c-0.5,0.3-0.9,0.7-1.2,1.2l-5.9,9.6c-0.6,0.8-0.4,1.9,0.4,2.5c0.3,0.2,0.7,0.3,1,0.3c0.6,0,1.1-0.3,1.5-0.8  l4.2-7.3c0.4-0.6,1-1,1.8-1l0,0c0,4.1-0.4,14.1-6.1,25.4c-0.4,0.9,0,1.9,1,2.2c0.3,0.1,0.5,0.1,0.8,0.1c0.8,0,1.5-0.4,1.8-1  c2.6-5.3,5.1-15.4,5.1-15.4c0.1-0.4,0.5-0.7,0.9-0.7H18v0h0.8c0.4,0,0.8,0.3,0.9,0.7c0,0,1.9,7.7,4.1,13.2c0.8-1.6,1.5-3.2,2.1-4.8  c-1.3-3.6-2.2-6.9-2.7-9.9C23,54.7,22.9,54.7,22.8,54.7z"/><path class="st0" d="M71.8,53.3l1.7-2.5l-2-2.9l-1.1,1.4c0.1,1.2,0.4,2.7,0.7,4.5C71.4,53.7,71.7,53.5,71.8,53.3z"/><path class="st0" d="M94.5,51.2l-8-9.7c-0.3-0.5-0.6-0.8-0.9-1.1c-0.3-0.3-0.7-0.4-1.2-0.4c-0.1,0-0.1,0-0.1,0l-0.4,0  c-0.2,0-0.5-0.1-0.7-0.2c-0.1-0.1-0.3-0.3-0.4-0.6c-0.1-0.2,0-0.5,0.2-0.6c2.2-0.6,3.7-2.5,3.8-4.9c0.1-2.8-2.3-5.3-5.1-5.3  c-2.9,0-5.3,2.3-5.3,5.2c0,2.4,1.6,4.4,3.8,5c0.3,0.1,0.4,0.4,0.2,0.6c-0.1,0.2-0.3,0.4-0.4,0.6C80,39.9,79.7,40,79.5,40L79,40  c0,0-0.1,0-0.1,0c-0.5,0-0.9,0.2-1.2,0.4c-0.3,0.3-0.6,0.6-0.9,1.1l-2.3,2.8l2,2.4l0.9-1.3c0,0,0,0,0,0.1c0,0.6,0.8,1.1,1.3,1.4  c0,0.7-0.1,1.4-0.2,2.2l1.3,1.6l0,0l0,0c0.4,0.6,0.6,1.3,0.4,2c-0.2,0.7-0.6,1.3-1.2,1.7c-0.4,0.2-0.8,0.3-1.2,0.3  c-0.1,0-0.2,0-0.3,0c-0.7,3-1.6,6.5-3,10.4c0.6,1.5,1.2,3.2,1.9,4.8c0,0,0,0,0,0c0.8-2,1.5-4.3,2.2-6.3c0-0.1,0.1-0.4,0.1-0.4l6.1,0  c0,0,0.1,0.2,0.1,0.3c0.8,2.6,1.8,5.6,2.8,8c0.3,0.7,1,1.1,1.7,1.1c0.2,0,0.5,0,0.7-0.1c0.9-0.4,1.3-1.5,0.9-2.4  c-4.5-10.4-6-18.9-6.2-23.4c0.4-0.3,1.1-0.8,1.1-1.4c0-0.1,0-0.2,0-0.2l5.6,7.9c0.5,0.8,1.6,1.1,2.4,0.6  C94.9,53.3,95.1,52.1,94.5,51.2z"/><text x="0" y="115" fill="#000000" font-size="5px" font-weight="bold" font-family="'Helvetica Neue', Helvetica, Arial-Unicode, Arial, Sans-serif">Created by Robert Bjurshagen</text><text x="0" y="120" fill="#000000" font-size="5px" font-weight="bold" font-family="'Helvetica Neue', Helvetica, Arial-Unicode, Arial, Sans-serif">from the Noun Project</text></svg>