<?xml version="1.0" encoding="utf-8"?>
<!DOCTYPE svg PUBLIC "-//W3C//DTD SVG 1.1//EN" "http://www.w3.org/Graphics/SVG/1.1/DTD/svg11.dtd">
<svg version="1.1" id="Layer_1" xmlns="http://www.w3.org/2000/svg" xmlns:xlink="http://www.w3.org/1999/xlink" x="0px" y="0px"
	 width="841.89px" height="595.28px" viewBox="0 0 841.89 595.28" style="enable-background:new 0 0 841.89 595.28;"
	 xml:space="preserve">
<g>
	<polygon style="fill:none;stroke:#FBB040;stroke-width:10;stroke-miterlimit:10;" points="86.581,221.859 102.285,221.683 
		110.902,144.467 178.141,228.34 191.393,135.601 175.262,135.783 166.254,190.266 99.08,106.533 	"/>
</g>
<g>
	<g>
		<polygon style="fill:none;stroke:#FBB040;stroke-width:10;stroke-miterlimit:10;" points="209.354,207.642 215.852,194.745 
			258.229,194.277 266.436,219.862 283.348,219.68 244.331,103.077 192.194,207.667 		"/>
		<polygon style="fill:none;stroke:#FBB040;stroke-width:10;stroke-miterlimit:10;" points="253.538,179.96 222.697,180.301 
			241.361,141.251 		"/>
	</g>
</g>
<g>
	<path style="fill:none;stroke:#FBB040;stroke-width:10;stroke-miterlimit:10;" d="M306.377,177.57
		c-0.132,2.361-0.197,4.599-0.174,6.736c0.112,9.985,3.823,18.328,11.125,24.997c7.473,6.585,16.817,9.803,28.035,9.677
		c14.001-0.146,24.899-5.311,32.663-15.479c4.829-6.533,8.058-16.806,9.705-30.8l3.375-22.65l-16.125,0.175l-3.134,19.98
		c-1.38,11.677-4.153,20.14-8.351,25.372c-4.175,5.183-10.375,7.823-18.583,7.914c-7.034,0.078-12.62-1.9-16.762-5.943
		c-4.109-4.03-6.198-9.59-6.272-16.662c-0.022-1.325,0.026-2.789,0.131-4.332c0.093-1.573,0.249-3.275,0.468-5.12l7.03-61.516
		l-15.899,0.174l-6.6,59.967C306.726,172.71,306.509,175.205,306.377,177.57z"/>
</g>
<g>
	<path style="fill:none;stroke:#FBB040;stroke-width:10;stroke-miterlimit:10;" d="M409.732,165.794
		c0.171,15.296,5.119,27.813,14.843,37.549c9.727,9.732,22.19,14.519,37.378,14.347c18.02-0.205,31.523-7.58,40.511-22.119
		c4.771-7.725,7.638-17.58,8.581-29.585l-43.715,0.485l-1.609,14.389l27.101-0.302c-1.485,6.601-4.93,11.844-10.299,15.702
		c-5.433,3.867-12.013,5.836-19.751,5.922c-10.939,0.127-19.87-3.251-26.782-10.143c-6.914-6.895-10.438-15.83-10.561-26.836
		c-0.136-11.975,3.411-21.831,10.637-29.595c7.178-7.658,16.605-11.557,28.242-11.689c14.106-0.154,20.906,2.879,25.769,8.227
		l9.946-11.465c-10.681-9.798-17.59-12.466-35.604-12.265c-14.708,0.166-27,4.678-36.86,13.544
		c-5.726,5.246-10.149,11.733-13.249,19.484C411.157,149.365,409.641,157.497,409.732,165.794z"/>
</g>
<g>
	<polygon style="fill:none;stroke:#FBB040;stroke-width:10;stroke-miterlimit:10;" points="541.465,216.808 547.454,163.391 
		593.022,162.89 587.024,216.298 602.737,216.126 611.681,136.223 595.708,135.821 594.074,151.06 549.224,151.561 553.932,107.422 
		537.911,107.601 525.762,216.984 	"/>
</g>
<g>
	<polygon style="fill:none;stroke:#FBB040;stroke-width:10;stroke-miterlimit:10;" points="653.765,121.818 643.564,215.676 
		659.267,215.501 669.812,121.63 694.803,121.357 696.466,105.838 629.682,106.578 628.01,122.094 	"/>
</g>
<g>
	<polygon style="fill:none;stroke:#FBB040;stroke-width:10;stroke-miterlimit:10;" points="715.843,263.178 732.054,262.992 
		749.065,165.611 788.855,104.816 770.254,105.02 742.078,148.776 729.619,122.168 712.059,122.362 733.062,164.659 	"/>
</g>
<g>
	<path style="fill:none;stroke:#FBB040;stroke-width:10;stroke-miterlimit:10;" d="M153.851,299.533
		c-4.323-4.428-12.703-9.241-25.115-14.407c-9.013-3.684-13.543-7.473-13.587-11.347c-0.022-2.176,0.72-4.006,2.224-5.434
		c1.5-1.426,3.322-2.16,5.46-2.187c4.479-0.049,8.276,2.971,11.385,9.081l19.146-10.448c-6.429-13.267-16.106-19.81-29.008-19.67
		c-8.764,0.096-16.189,3.04-22.255,8.848c-5.959,5.797-8.874,13.075-8.78,21.834c0.077,6.631,1.905,12.027,5.462,16.203
		c2.801,3.272,7.599,6.536,14.402,9.774c2.428,1.148,4.809,2.264,7.193,3.33c2.343,1.084,4.706,2.207,7.06,3.344
		c6.113,3.521,9.206,7.352,9.255,11.506c0.076,7.16-3.826,10.814-11.692,10.902c-3.928,0.043-7.332-1.24-10.191-3.842
		c-1.464-1.281-3.603-4.346-6.415-9.121l-19.778,9.412c7.224,16.436,19.288,24.543,36.2,24.355
		c9.872-0.102,18.257-3.316,25.164-9.582c7.098-6.625,10.599-14.807,10.493-24.535C160.396,309.98,158.186,303.955,153.851,299.533z
		"/>
</g>
<g>
	<polygon style="fill:none;stroke:#FBB040;stroke-width:10;stroke-miterlimit:10;" points="328.978,245.64 302.871,245.921 
		277.419,303.781 248.015,237.332 220.276,304.42 193.243,247.141 167.05,247.438 220.952,355.264 248.599,290.026 277.372,354.641 
			"/>
</g>
<g>
	<path style="fill:none;stroke:#FBB040;stroke-width:10;stroke-miterlimit:10;" d="M370.322,127.563
		c2.997,2.949,6.604,4.393,10.816,4.341c4.217-0.036,7.749-1.573,10.626-4.577c2.926-3.001,4.364-6.598,4.318-10.809
		c-0.051-4.215-1.561-7.767-4.562-10.624c-3.003-2.931-6.606-4.375-10.826-4.328c-4.136,0.045-7.685,1.565-10.613,4.563
		c-2.934,3.007-4.367,6.548-4.322,10.622C365.798,121.028,367.326,124.631,370.322,127.563z"/>
</g>
<g>
	
		<rect x="306.483" y="284.122" transform="matrix(-0.0111 -0.9999 0.9999 -0.0111 65.1277 655.9464)" style="fill:none;stroke:#FBB040;stroke-width:10;stroke-miterlimit:10;" width="100.863" height="23.295"/>
</g>
<g>
	<path style="fill:none;stroke:#FBB040;stroke-width:10;stroke-miterlimit:10;" d="M458.473,252.493
		c-6.641-7.33-15.828-10.902-27.565-10.776c-10.215,0.123-19.345,4.262-27.408,12.418l-0.099-9.329l-23.402,0.263l1.122,100.865
		l23.395-0.254l-0.534-48.607c-0.14-12.556,1.352-21.354,4.467-26.45c3.187-5.124,8.654-7.727,16.376-7.814
		c7.112-0.085,12.04,1.8,14.766,5.643c2.81,3.737,4.275,10.578,4.386,20.51l0.617,56.27l23.394-0.27l-0.687-61.815
		C467.146,268.924,464.206,258.726,458.473,252.493z"/>
</g>
<g>
	<g>
		<path style="fill:none;stroke:#FBB040;stroke-width:10;stroke-miterlimit:10;" d="M588.562,379.715h-0.004
			c-0.118-17.689-0.277-36.021-0.31-38.469l-1.079-98.477l-23.299,0.26l0.122,11.394c-8.531-9.372-19.136-13.971-31.831-13.826
			c-14.497,0.161-26.102,5.744-34.817,16.751c-8.099,10.368-12.069,22.899-11.906,37.604c0.165,15.122,4.723,27.67,13.669,37.647
			c8.885,9.828,20.182,14.691,33.918,14.535c12.084-0.131,22.696-4.984,31.841-14.545l0.526,47.863h0.007l0.288,26.598
			c0.235,20.836-8.183,31.361-25.223,31.543c-9.248,0.104-16.327-2.961-21.232-9.178c-2.089-2.672-3.625-6.486-4.577-11.457
			l-23.394,0.258c1.526,13.18,6.824,23.463,15.875,30.844c8.774,7.184,19.901,10.697,33.357,10.551
			c15.941-0.18,28.399-5.566,37.407-16.148c4.768-5.51,7.937-12.064,9.505-19.684c0.519-2.766,0.919-5.953,1.197-9.576
			C588.728,412.467,588.665,396.062,588.562,379.715z"/>
		<path style="fill:none;stroke:#FBB040;stroke-width:10;stroke-miterlimit:10;" d="M558.47,316.324
			c-5.117,6.535-12.106,9.859-21.025,9.957c-8.903,0.094-15.901-3.045-21.013-9.377c-4.683-5.828-7.087-13.311-7.183-22.487
			c-0.107-9.274,2.125-16.891,6.687-22.808c5.034-6.594,11.964-9.944,20.804-10.04c8.283-0.095,15.11,2.824,20.488,8.743
			c5.319,5.827,8.028,13.61,8.13,23.4C565.454,302.879,563.167,310.4,558.47,316.324z"/>
	</g>
</g>
</svg>
