<!--?xml version="1.0" encoding="utf-8"?-->
<!-- Generator: Adobe Illustrator 16.0.0, SVG Export Plug-In . SVG Version: 6.00 Build 0)  -->

<svg version="1.1" id="Layer_1" xmlns="http://www.w3.org/2000/svg" xmlns:xlink="http://www.w3.org/1999/xlink" x="0px" y="0px" width="841.89px" height="595.28px" viewBox="0 0 841.89 595.28" xml:space="preserve">
<path style="fill:none;stroke:#FFFFFF;stroke-width:2;stroke-miterlimit:10;" d="M370.187,212.093h-6.912l-5.616-33.264h-0.144
	l-5.544,33.264h-6.912l-7.632-51.264h7.776l3.672,32.544h0.144l5.76-32.544h5.616l5.976,33.336h0.144l3.528-33.336h7.776
	L370.187,212.093z" class="WMJaHDnm_0"></path>
<path style="fill:none;stroke:#FFFFFF;stroke-width:2;stroke-miterlimit:10;" d="M382.425,160.829h21.888v6.912h-14.544v15.048
	h12.672v6.912h-12.672v15.048h14.544v7.344h-21.888V160.829z" class="WMJaHDnm_1"></path>
<path style="fill:none;stroke:#FFFFFF;stroke-width:2;stroke-miterlimit:10;" d="M430.592,160.829h6.121l11.447,51.264h-7.344
	l-2.16-11.016h-10.008l-2.16,11.016h-7.344L430.592,160.829z M433.689,175.589h-0.145l-3.6,18.576h7.344L433.689,175.589z" class="WMJaHDnm_2"></path>
<path style="fill:none;stroke:#FFFFFF;stroke-width:2;stroke-miterlimit:10;" d="M451.76,160.829h11.809
	c8.641,0,12.959,5.017,12.959,15.048c0,2.977-0.467,5.533-1.402,7.668c-0.938,2.136-2.582,3.852-4.934,5.148l7.92,23.4h-7.775
	l-6.84-21.888h-4.393v21.888h-7.344V160.829z M459.104,183.725h4.176c1.297,0,2.328-0.18,3.098-0.54
	c0.766-0.36,1.355-0.875,1.764-1.548c0.406-0.671,0.684-1.5,0.828-2.484c0.143-0.983,0.215-2.124,0.215-3.42
	s-0.072-2.436-0.215-3.42c-0.145-0.983-0.445-1.824-0.9-2.52c-0.457-0.695-1.092-1.212-1.908-1.548
	c-0.816-0.335-1.896-0.504-3.24-0.504h-3.816V183.725z" class="WMJaHDnm_3"></path>
<path style="fill:none;stroke:#FFFFFF;stroke-width:2;stroke-miterlimit:10;" d="M482.432,160.829h21.889v6.912h-14.545v15.048
	h12.672v6.912h-12.672v15.048h14.545v7.344h-21.889V160.829z" class="WMJaHDnm_4"></path>
<path style="fill:none;stroke:#FFFFFF;stroke-width:2;stroke-miterlimit:10;" d="M321.551,247.229h7.056l11.088,30.888h0.144
	v-30.888h7.344v51.264h-6.912l-11.232-30.816h-0.144v30.816h-7.344V247.229z" class="WMJaHDnm_5"></path>
<path style="fill:none;stroke:#FFFFFF;stroke-width:2;stroke-miterlimit:10;" d="M361.942,247.229h6.12l11.448,51.264h-7.344
	l-2.16-11.016h-10.008l-2.16,11.016h-7.344L361.942,247.229z M365.038,261.989h-0.144l-3.6,18.576h7.344L365.038,261.989z" class="WMJaHDnm_6"></path>
<path style="fill:none;stroke:#FFFFFF;stroke-width:2;stroke-miterlimit:10;" d="M406.87,286.973c0,1.681-0.312,3.24-0.936,4.68
	c-0.625,1.44-1.477,2.7-2.557,3.78s-2.34,1.933-3.779,2.556c-1.44,0.623-2.977,0.936-4.608,0.936c-1.632,0-3.168-0.313-4.608-0.936
	c-1.44-0.624-2.7-1.476-3.78-2.556c-1.08-1.08-1.933-2.34-2.556-3.78c-0.625-1.44-0.936-3-0.936-4.68v-39.744h7.344v39.024
	c0,1.825,0.432,3.168,1.296,4.032c0.864,0.864,1.944,1.296,3.24,1.296s2.376-0.432,3.24-1.296s1.296-2.207,1.296-4.032v-39.024
	h7.344V286.973z" class="WMJaHDnm_7"></path>
<path style="fill:none;stroke:#FFFFFF;stroke-width:2;stroke-miterlimit:10;" d="M413.35,259.325c0-2.063,0.359-3.888,1.079-5.472
	c0.721-1.584,1.668-2.891,2.845-3.924c1.176-1.032,2.495-1.812,3.96-2.34c1.463-0.528,2.94-0.792,4.428-0.792
	c1.486,0,2.963,0.264,4.428,0.792c1.463,0.528,2.783,1.308,3.959,2.34c1.176,1.033,2.125,2.34,2.846,3.924
	c0.719,1.584,1.08,3.409,1.08,5.472v2.592h-7.346v-2.592c0-1.775-0.492-3.083-1.475-3.924c-0.984-0.839-2.148-1.26-3.492-1.26
	c-1.346,0-2.51,0.421-3.492,1.26c-0.985,0.84-1.476,2.148-1.476,3.924v27.072c0,1.776,0.491,3.085,1.476,3.924
	c0.982,0.84,2.146,1.26,3.492,1.26c1.344,0,2.508-0.419,3.492-1.26c0.982-0.839,1.475-2.148,1.475-3.924v-9.648h-5.832v-6.48h13.178
	v16.128c0,2.113-0.361,3.949-1.08,5.508c-0.721,1.56-1.67,2.856-2.846,3.888c-1.176,1.033-2.496,1.812-3.959,2.34
	c-1.465,0.527-2.941,0.792-4.428,0.792c-1.488,0-2.965-0.265-4.428-0.792c-1.465-0.528-2.784-1.308-3.96-2.34
	c-1.177-1.031-2.124-2.328-2.845-3.888c-0.72-1.56-1.079-3.396-1.079-5.508V259.325z" class="WMJaHDnm_8"></path>
<path style="fill:none;stroke:#FFFFFF;stroke-width:2;stroke-miterlimit:10;" d="M444.453,247.229h7.344v21.96h9.072v-21.96h7.344
	v51.264h-7.344v-22.824h-9.072v22.824h-7.344V247.229z" class="WMJaHDnm_9"></path>
<path style="fill:none;stroke:#FFFFFF;stroke-width:2;stroke-miterlimit:10;" d="M479.949,254.141h-8.496v-6.912h24.336v6.912
	h-8.496v44.352h-7.344V254.141z" class="WMJaHDnm_10"></path>
<path style="fill:none;stroke:#FFFFFF;stroke-width:2;stroke-miterlimit:10;" d="M505.869,276.821l-10.08-29.592h7.775l5.904,20.376
	h0.145l5.904-20.376h7.775l-10.08,29.592v21.672h-7.344V276.821z" class="WMJaHDnm_11"></path>
<path style="fill:none;stroke:#FFFFFF;stroke-width:2;stroke-miterlimit:10;" d="M295.524,348.389h-7.344v-1.656
	c0-1.68-0.396-3.132-1.188-4.355c-0.792-1.225-2.124-1.836-3.996-1.836c-1.008,0-1.836,0.191-2.484,0.576s-1.152,0.876-1.512,1.476
	c-0.36,0.601-0.612,1.296-0.756,2.088s-0.216,1.62-0.216,2.483c0,1.008,0.036,1.861,0.108,2.557c0.072,0.696,0.252,1.296,0.54,1.8
	c0.288,0.504,0.708,0.948,1.26,1.332c0.551,0.385,1.307,0.769,2.268,1.151l5.616,2.232c1.631,0.625,2.952,1.357,3.96,2.196
	c1.008,0.841,1.788,1.825,2.34,2.952c0.551,1.129,0.924,2.424,1.116,3.888c0.191,1.465,0.288,3.132,0.288,5.004
	c0,2.16-0.216,4.165-0.648,6.013c-0.432,1.848-1.141,3.432-2.124,4.752c-0.984,1.32-2.292,2.364-3.924,3.131
	c-1.632,0.768-3.625,1.152-5.976,1.152c-1.776,0-3.432-0.312-4.968-0.936c-1.537-0.623-2.856-1.477-3.96-2.557
	c-1.105-1.08-1.98-2.363-2.628-3.852c-0.648-1.487-0.972-3.096-0.972-4.824v-2.736h7.344v2.305c0,1.344,0.396,2.557,1.188,3.636
	c0.792,1.08,2.124,1.62,3.996,1.62c1.248,0,2.22-0.18,2.916-0.54c0.695-0.36,1.224-0.864,1.584-1.512s0.587-1.451,0.684-2.412
	c0.096-0.96,0.144-2.017,0.144-3.168c0-1.343-0.048-2.448-0.144-3.312c-0.097-0.865-0.3-1.56-0.612-2.088
	c-0.313-0.528-0.745-0.961-1.296-1.297c-0.552-0.335-1.285-0.695-2.196-1.08l-5.256-2.16c-3.168-1.295-5.292-3.012-6.372-5.147
	s-1.62-4.812-1.62-8.028c0-1.919,0.263-3.744,0.792-5.472c0.528-1.728,1.307-3.216,2.34-4.464c1.032-1.248,2.34-2.244,3.924-2.988
	s3.431-1.115,5.544-1.115c1.824,0,3.492,0.336,5.004,1.008s2.808,1.561,3.888,2.664s1.908,2.34,2.484,3.707
	c0.576,1.368,0.864,2.772,0.864,4.213V348.389z" class="WMJaHDnm_12"></path>
<path style="fill:none;stroke:#FFFFFF;stroke-width:2;stroke-miterlimit:10;" d="M300.564,345.725c0-2.063,0.36-3.889,1.08-5.473
	s1.667-2.891,2.844-3.924c1.175-1.031,2.495-1.811,3.96-2.34c1.463-0.527,2.939-0.791,4.428-0.791c1.487,0,2.963,0.264,4.428,0.791
	c1.463,0.529,2.783,1.309,3.96,2.34c1.175,1.033,2.124,2.34,2.844,3.924c0.72,1.584,1.08,3.409,1.08,5.473v27.072
	c0,2.112-0.36,3.948-1.08,5.508c-0.72,1.561-1.668,2.856-2.844,3.888c-1.177,1.032-2.497,1.812-3.96,2.341
	c-1.465,0.527-2.941,0.791-4.428,0.791c-1.488,0-2.964-0.264-4.428-0.791c-1.465-0.528-2.785-1.309-3.96-2.341
	c-1.177-1.031-2.124-2.327-2.844-3.888c-0.72-1.56-1.08-3.396-1.08-5.508V345.725z M307.908,372.797
	c0,1.775,0.492,3.084,1.476,3.924c0.983,0.84,2.147,1.26,3.492,1.26c1.343,0,2.508-0.42,3.492-1.26
	c0.983-0.84,1.476-2.148,1.476-3.924v-27.072c0-1.775-0.493-3.084-1.476-3.924c-0.984-0.84-2.149-1.26-3.492-1.26
	c-1.344,0-2.509,0.42-3.492,1.26c-0.984,0.84-1.476,2.148-1.476,3.924V372.797z" class="WMJaHDnm_13"></path>
<path style="fill:none;stroke:#FFFFFF;stroke-width:2;stroke-miterlimit:10;" d="M375.515,384.893h-6.912l-5.616-33.264h-0.144
	l-5.544,33.264h-6.912l-7.632-51.264h7.776l3.672,32.543h0.144l5.76-32.543h5.616l5.976,33.336h0.144l3.528-33.336h7.776
	L375.515,384.893z" class="WMJaHDnm_14"></path>
<path style="fill:none;stroke:#FFFFFF;stroke-width:2;stroke-miterlimit:10;" d="M387.753,333.629h21.888v6.912h-14.544v15.047
	h12.672v6.912h-12.672v15.049h14.544v7.344h-21.888V333.629z" class="WMJaHDnm_15"></path>
<path style="fill:none;stroke:#FFFFFF;stroke-width:2;stroke-miterlimit:10;" d="M451.545,348.389h-7.344v-1.656
	c0-1.68-0.396-3.132-1.189-4.355c-0.791-1.225-2.123-1.836-3.994-1.836c-1.01,0-1.838,0.191-2.484,0.576
	c-0.648,0.385-1.152,0.876-1.512,1.476c-0.361,0.601-0.613,1.296-0.758,2.088c-0.143,0.792-0.215,1.62-0.215,2.483
	c0,1.008,0.035,1.861,0.107,2.557c0.072,0.696,0.252,1.296,0.541,1.8c0.287,0.504,0.707,0.948,1.26,1.332
	c0.551,0.385,1.307,0.769,2.268,1.151l5.615,2.232c1.633,0.625,2.953,1.357,3.961,2.196c1.008,0.841,1.787,1.825,2.34,2.952
	c0.551,1.129,0.924,2.424,1.115,3.888c0.191,1.465,0.289,3.132,0.289,5.004c0,2.16-0.217,4.165-0.648,6.013
	s-1.141,3.432-2.123,4.752c-0.984,1.32-2.293,2.364-3.926,3.131c-1.631,0.768-3.623,1.152-5.975,1.152
	c-1.777,0-3.434-0.312-4.969-0.936c-1.537-0.623-2.855-1.477-3.959-2.557c-1.105-1.08-1.98-2.363-2.629-3.852
	c-0.648-1.487-0.973-3.096-0.973-4.824v-2.736h7.346v2.305c0,1.344,0.395,2.557,1.188,3.636c0.791,1.08,2.123,1.62,3.996,1.62
	c1.248,0,2.219-0.18,2.916-0.54c0.695-0.36,1.223-0.864,1.584-1.512c0.359-0.647,0.586-1.451,0.684-2.412
	c0.096-0.96,0.145-2.017,0.145-3.168c0-1.343-0.049-2.448-0.145-3.312c-0.098-0.865-0.301-1.56-0.611-2.088
	c-0.312-0.528-0.746-0.961-1.297-1.297c-0.553-0.335-1.285-0.695-2.195-1.08l-5.256-2.16c-3.168-1.295-5.293-3.012-6.373-5.147
	s-1.619-4.812-1.619-8.028c0-1.919,0.264-3.744,0.791-5.472s1.309-3.216,2.34-4.464c1.033-1.248,2.34-2.244,3.924-2.988
	s3.432-1.115,5.545-1.115c1.824,0,3.492,0.336,5.004,1.008s2.809,1.561,3.889,2.664s1.908,2.34,2.482,3.707
	c0.576,1.368,0.865,2.772,0.865,4.213V348.389z" class="WMJaHDnm_16"></path>
<path style="fill:none;stroke:#FFFFFF;stroke-width:2;stroke-miterlimit:10;" d="M487.473,384.893h-6.912l-5.617-33.264h-0.143
	l-5.545,33.264h-6.912l-7.631-51.264h7.775l3.672,32.543h0.145l5.76-32.543h5.615l5.977,33.336h0.145l3.527-33.336h7.775
	L487.473,384.893z" class="WMJaHDnm_17"></path>
<path style="fill:none;stroke:#FFFFFF;stroke-width:2;stroke-miterlimit:10;" d="M499.928,333.629h7.344v51.264h-7.344V333.629z" class="WMJaHDnm_18"></path>
<path style="fill:none;stroke:#FFFFFF;stroke-width:2;stroke-miterlimit:10;" d="M514.111,333.629h7.055l11.088,30.888h0.145
	v-30.888h7.344v51.264h-6.912l-11.23-30.816h-0.145v30.816h-7.344V333.629z" class="WMJaHDnm_19"></path>
<path style="fill:none;stroke:#FFFFFF;stroke-width:2;stroke-miterlimit:10;" d="M545.934,345.725c0-2.063,0.359-3.889,1.08-5.473
	s1.668-2.891,2.844-3.924c1.176-1.031,2.496-1.811,3.961-2.34c1.463-0.527,2.939-0.791,4.428-0.791c1.486,0,2.963,0.264,4.428,0.791
	c1.463,0.529,2.783,1.309,3.959,2.34c1.176,1.033,2.125,2.34,2.846,3.924c0.719,1.584,1.08,3.409,1.08,5.473v2.592h-7.346v-2.592
	c0-1.775-0.492-3.084-1.475-3.924c-0.984-0.84-2.148-1.26-3.492-1.26c-1.346,0-2.51,0.42-3.492,1.26
	c-0.984,0.84-1.477,2.148-1.477,3.924v27.072c0,1.775,0.492,3.084,1.477,3.924c0.982,0.84,2.146,1.26,3.492,1.26
	c1.344,0,2.508-0.42,3.492-1.26c0.982-0.84,1.475-2.148,1.475-3.924v-9.648h-5.832v-6.48h13.178v16.129
	c0,2.112-0.361,3.948-1.08,5.508c-0.721,1.561-1.67,2.856-2.846,3.888c-1.176,1.032-2.496,1.812-3.959,2.341
	c-1.465,0.527-2.941,0.791-4.428,0.791c-1.488,0-2.965-0.264-4.428-0.791c-1.465-0.528-2.785-1.309-3.961-2.341
	c-1.176-1.031-2.123-2.327-2.844-3.888c-0.721-1.56-1.08-3.396-1.08-5.508V345.725z" class="WMJaHDnm_20"></path>
<style>.WMJaHDnm_0{stroke-dasharray:340 342;stroke-dashoffset:341;animation:WMJaHDnm_draw 500ms linear 0ms forwards;}.WMJaHDnm_1{stroke-dasharray:201 203;stroke-dashoffset:202;animation:WMJaHDnm_draw 500ms linear 0ms forwards;}.WMJaHDnm_2{stroke-dasharray:204 206;stroke-dashoffset:205;animation:WMJaHDnm_draw 500ms linear 0ms forwards;}.WMJaHDnm_3{stroke-dasharray:238 240;stroke-dashoffset:239;animation:WMJaHDnm_draw 500ms linear 0ms forwards;}.WMJaHDnm_4{stroke-dasharray:201 203;stroke-dashoffset:202;animation:WMJaHDnm_draw 500ms linear 0ms forwards;}.WMJaHDnm_5{stroke-dasharray:259 261;stroke-dashoffset:260;animation:WMJaHDnm_draw 500ms linear 0ms forwards;}.WMJaHDnm_6{stroke-dasharray:204 206;stroke-dashoffset:205;animation:WMJaHDnm_draw 500ms linear 0ms forwards;}.WMJaHDnm_7{stroke-dasharray:226 228;stroke-dashoffset:227;animation:WMJaHDnm_draw 500ms linear 0ms forwards;}.WMJaHDnm_8{stroke-dasharray:230 232;stroke-dashoffset:231;animation:WMJaHDnm_draw 500ms linear 0ms forwards;}.WMJaHDnm_9{stroke-dasharray:240 242;stroke-dashoffset:241;animation:WMJaHDnm_draw 500ms linear 0ms forwards;}.WMJaHDnm_10{stroke-dasharray:152 154;stroke-dashoffset:153;animation:WMJaHDnm_draw 500ms linear 0ms forwards;}.WMJaHDnm_11{stroke-dasharray:172 174;stroke-dashoffset:173;animation:WMJaHDnm_draw 500ms linear 0ms forwards;}.WMJaHDnm_12{stroke-dasharray:210 212;stroke-dashoffset:211;animation:WMJaHDnm_draw 500ms linear 0ms forwards;}.WMJaHDnm_13{stroke-dasharray:220 222;stroke-dashoffset:221;animation:WMJaHDnm_draw 500ms linear 0ms forwards;}.WMJaHDnm_14{stroke-dasharray:340 342;stroke-dashoffset:341;animation:WMJaHDnm_draw 500ms linear 0ms forwards;}.WMJaHDnm_15{stroke-dasharray:201 203;stroke-dashoffset:202;animation:WMJaHDnm_draw 500ms linear 0ms forwards;}.WMJaHDnm_16{stroke-dasharray:210 212;stroke-dashoffset:211;animation:WMJaHDnm_draw 500ms linear 0ms forwards;}.WMJaHDnm_17{stroke-dasharray:340 342;stroke-dashoffset:341;animation:WMJaHDnm_draw 500ms linear 0ms forwards;}.WMJaHDnm_18{stroke-dasharray:118 120;stroke-dashoffset:119;animation:WMJaHDnm_draw 500ms linear 0ms forwards;}.WMJaHDnm_19{stroke-dasharray:259 261;stroke-dashoffset:260;animation:WMJaHDnm_draw 500ms linear 0ms forwards;}.WMJaHDnm_20{stroke-dasharray:230 232;stroke-dashoffset:231;animation:WMJaHDnm_draw 500ms linear 0ms forwards;}@keyframes WMJaHDnm_draw{100%{stroke-dashoffset:0;}}@keyframes WMJaHDnm_fade{0%{stroke-opacity:1;}91.48936170212767%{stroke-opacity:1;}100%{stroke-opacity:0;}}</style></svg>
